<?xml version="1.0" encoding="UTF-8"?>
<svg version="1.1" xmlns="http://www.w3.org/2000/svg" width="1024" height="1024">
<path d="M0 0 C55.39940631 -0.02286386 110.79881215 -0.04049694 166.19822225 -0.05106533 C172.73118789 -0.05231611 179.26415352 -0.05361043 185.79711914 -0.05493164 C187.74810181 -0.05532511 187.74810181 -0.05532511 189.73849828 -0.05572652 C210.82840019 -0.06008378 231.91829939 -0.06797163 253.00819968 -0.0771528 C274.63099162 -0.08648779 296.25378214 -0.09205528 317.87657601 -0.09408849 C331.23058745 -0.09546404 344.58459123 -0.09981635 357.93860031 -0.10791647 C367.08252034 -0.11318203 376.22643637 -0.11480473 385.3703578 -0.11350138 C390.65440724 -0.1128577 395.93844324 -0.11387885 401.22249031 -0.11920547 C406.05153677 -0.12403819 410.88056063 -0.1243395 415.70960809 -0.12089889 C417.46466183 -0.12047307 419.21971694 -0.12176988 420.97476798 -0.12488318 C423.34433902 -0.1288451 425.71382644 -0.1267647 428.08339596 -0.12304783 C428.77865921 -0.12567484 429.47392246 -0.12830186 430.1902543 -0.13100848 C434.8858542 -0.1141458 434.8858542 -0.1141458 436 1 C438.1418285 1.30086882 440.2888477 1.56502336 442.4375 1.8125 C448.82777861 2.68360614 454.19977745 4.22736614 460 7 C460.96292969 7.45826172 460.96292969 7.45826172 461.9453125 7.92578125 C463.30821592 8.59455479 464.65656596 9.29292945 466 10 C466 10.66 466 11.32 466 12 C468.475 12.495 468.475 12.495 471 13 C471 13.66 471 14.32 471 15 C471.86625 15.1546875 471.86625 15.1546875 472.75 15.3125 C475.35661158 16.10896465 476.9735311 17.19065277 479 19 C479 19.66 479 20.32 479 21 C479.99 21.33 480.98 21.66 482 22 C482 22.66 482 23.32 482 24 C482.86625 24.3403125 482.86625 24.3403125 483.75 24.6875 C486.60113897 26.3506644 488.04776661 28.35503863 490 31 C490.86625 32.051875 490.86625 32.051875 491.75 33.125 C493 35 493 35 493 38 C493.66 38 494.32 38 495 38 C497.43160605 41.36683915 498 42.73350364 498 47 C498.66 47 499.32 47 500 47 C500.62777573 48.99913047 501.25207153 50.99935382 501.875 53 C502.39707031 54.670625 502.39707031 54.670625 502.9296875 56.375 C503.28289063 57.57125 503.63609375 58.7675 504 60 C504.34697591 61.05877822 504.69395182 62.11755644 505.05144215 63.20841885 C506.73449041 70.07843658 506.271379 77.26223363 506.24723816 84.29029846 C506.24882738 85.96275923 506.25129209 87.63521935 506.25455457 89.30767769 C506.26095771 93.8937574 506.25490792 98.4797486 506.24679029 103.06582248 C506.24020501 108.01542176 506.24516357 112.96501128 506.24867249 117.91461182 C506.25371178 127.60677034 506.24807629 137.29889472 506.23882218 146.991049 C506.22843416 158.27675217 506.22850848 169.56244797 506.22899476 180.84815501 C506.22949532 200.98333125 506.22033558 221.1184916 506.20581055 241.25366211 C506.19172141 260.79468068 506.18463987 280.33568527 506.18530273 299.87670898 C506.18534269 301.08038258 506.18538265 302.28405618 506.18542381 303.52420474 C506.18546417 304.72579165 506.18550452 305.92737856 506.1855461 307.1653772 C506.1862359 329.40886603 506.18034639 351.65234893 506.17139288 373.89583584 C506.16837617 381.76391173 506.16731328 389.63198653 506.16686058 397.50006294 C506.16617852 407.08683384 506.16171484 416.67359473 506.15252777 426.26036138 C506.14791014 431.15230636 506.14486416 436.04423853 506.14612198 440.93618584 C506.14721741 445.41365096 506.14369619 449.89108774 506.13647345 454.36854696 C506.13466107 455.98887825 506.13452892 457.60921247 506.13624074 459.22954387 C506.13830977 461.43172163 506.13423365 463.63380688 506.12863445 465.8359766 C506.12793003 467.05927585 506.1272256 468.28257509 506.12649983 469.54294401 C505.90301192 475.65054277 504.77689857 481.19546467 503 487 C502.34 487 501.68 487 501 487 C500.938125 487.94875 500.87625 488.8975 500.8125 489.875 C500.10828237 495.07127249 497.47950619 499.45271375 495 504 C494.34 504 493.68 504 493 504 C492.67 505.65 492.34 507.3 492 509 C491.34 509 490.68 509 490 509 C489.690625 509.61875 489.38125 510.2375 489.0625 510.875 C488.375 512.25 487.6875 513.625 487 515 C486.34 515 485.68 515 485 515 C485 515.66 485 516.32 485 517 C481.37767572 521.04240371 477.28700293 524.17765581 472.875 527.3125 C472.25496094 527.76689453 471.63492188 528.22128906 470.99609375 528.68945312 C466.36630639 532 466.36630639 532 463 532 C463 532.66 463 533.32 463 534 C462.26394531 534.26554688 461.52789063 534.53109375 460.76953125 534.8046875 C459.79371094 535.15789063 458.81789063 535.51109375 457.8125 535.875 C456.36810547 536.39707031 456.36810547 536.39707031 454.89453125 536.9296875 C452.0743402 537.92518278 452.0743402 537.92518278 449.73828125 539.06640625 C445.69195099 540.44596821 441.61784518 540.69285819 437.375 541.0625 C435.67419935 541.21700216 433.97366145 541.37443196 432.2734375 541.53515625 C431.52497559 541.600979 430.77651367 541.66680176 430.00537109 541.73461914 C427.79735032 541.96253008 427.79735032 541.96253008 425 543 C422.7270464 543.09426169 420.45134563 543.12554669 418.17643833 543.12584114 C417.47518848 543.12729458 416.77393863 543.12874802 416.05143878 543.13024551 C413.68397506 543.13391671 411.31657527 543.13041389 408.94911194 543.12698364 C407.24170585 543.12813502 405.53430002 543.12972265 403.8268947 543.13171089 C399.12113697 543.13590197 394.4153994 543.1338145 389.70964158 543.13072467 C384.64003937 543.12846988 379.57044074 543.13195059 374.50083923 543.13470459 C364.56369876 543.13916052 354.62656583 543.13818657 344.68942506 543.13529195 C336.61553992 543.1330371 328.5416569 543.13272575 320.46777153 543.13381577 C319.32033334 543.133969 318.17289515 543.13412223 316.9906861 543.13428011 C314.65995563 543.13459982 312.32922515 543.13492403 309.99849468 543.1352527 C288.12232272 543.13810701 266.24615494 543.1348213 244.36998367 543.12945233 C225.58560225 543.12498494 206.80122701 543.12575979 188.0168457 543.13037109 C166.22255824 543.13571875 144.42827444 543.13783169 122.63398641 543.13475883 C120.31133902 543.13444027 117.98869163 543.1341259 115.66604424 543.13381577 C113.95170348 543.13358435 113.95170348 543.13358435 112.20272957 543.13334826 C104.13593099 543.13248364 96.06913473 543.13394483 88.0023365 543.13629532 C78.17527882 543.13909566 68.34822912 543.13835011 58.52117235 543.13301457 C53.50406633 543.13038065 48.48697364 543.1293673 43.46986771 543.13266373 C38.88133675 543.13563303 34.29283156 543.13402319 29.70430296 543.12868617 C28.04013354 543.12756471 26.37596196 543.12814723 24.71179391 543.13056196 C22.45763217 543.13358308 20.2035598 543.13050354 17.94940281 543.12584114 C16.69491417 543.12567879 15.44042554 543.12551644 14.1479221 543.12534916 C11.5404665 543.02152119 9.47636721 542.73864816 7 542 C5.53157695 541.83902854 4.0595017 541.70932745 2.5859375 541.60546875 C-6.59908185 540.87871093 -14.63978049 540.14612512 -23 536 C-24.99302124 535.3127513 -26.98967123 534.63484067 -29 534 C-29 533.34 -29 532.68 -29 532 C-30.0828125 531.8453125 -30.0828125 531.8453125 -31.1875 531.6875 C-34.27793421 530.93206053 -36.41743841 529.84468685 -39 528 C-39 527.34 -39 526.68 -39 526 C-40.32 525.67 -41.64 525.34 -43 525 C-43 524.34 -43 523.68 -43 523 C-43.556875 522.773125 -44.11375 522.54625 -44.6875 522.3125 C-48.68438886 520.04399551 -51.53966649 517.38100054 -53 513 C-53.99 512.67 -54.98 512.34 -56 512 C-56 511.01 -56 510.02 -56 509 C-56.66 509 -57.32 509 -58 509 C-58.33 507.35 -58.66 505.7 -59 504 C-59.66 504 -60.32 504 -61 504 C-69.8711508 487.95642941 -72.15443842 472.99135882 -72.12698364 454.94421387 C-72.12813656 453.29721527 -72.12972523 451.65021693 -72.13171089 450.00321913 C-72.13588079 445.48750389 -72.13382407 440.97180981 -72.13072467 436.4560945 C-72.12846128 431.58214281 -72.13195487 426.70819475 -72.13470459 421.83424377 C-72.13915119 412.29015134 -72.13819074 402.74606677 -72.13529195 393.20197403 C-72.13303357 385.44527187 -72.13272728 377.68857191 -72.13381577 369.93186951 C-72.133969 368.82789407 -72.13412223 367.72391864 -72.13428011 366.58648941 C-72.13459983 364.34378453 -72.13492405 362.10107965 -72.1352527 359.85837477 C-72.13810424 338.82854453 -72.13482557 317.79871865 -72.12945233 296.76888913 C-72.12498459 278.72434187 -72.12576061 260.67980105 -72.13037109 242.63525391 C-72.1357226 221.68066632 -72.13782958 200.72608256 -72.13475883 179.77149439 C-72.13444028 177.53703976 -72.13412591 175.30258513 -72.13381577 173.06813049 C-72.13366149 171.9687361 -72.13350721 170.8693417 -72.13334826 169.73663232 C-72.13248484 161.98925114 -72.13394224 154.24187238 -72.13629532 146.49449158 C-72.1390999 137.05304421 -72.13834112 127.61160516 -72.13301457 118.17015874 C-72.13038648 113.35302356 -72.12935744 108.53590224 -72.13266373 103.71876717 C-72.13564498 99.30848345 -72.13400332 94.89822644 -72.12868617 90.48794514 C-72.12756982 88.89316715 -72.12813586 87.2983869 -72.13056196 85.70361036 C-72.15779536 66.3134616 -72.15779536 66.3134616 -68 57 C-67.55416278 55.08926904 -67.10866076 53.17844539 -66.671875 51.265625 C-65.3014319 46.6443634 -63.08716175 42.33364882 -61 38 C-60.34 38 -59.68 38 -59 38 C-58.88527344 37.41734375 -58.77054688 36.8346875 -58.65234375 36.234375 C-57.95175938 33.83476865 -57.01807405 32.27139067 -55.5625 30.25 C-54.91474609 29.32960938 -54.91474609 29.32960938 -54.25390625 28.390625 C-53.84011719 27.93171875 -53.42632812 27.4728125 -53 27 C-52.34 27 -51.68 27 -51 27 C-50.67 26.01 -50.34 25.02 -50 24 C-49.34 24 -48.68 24 -48 24 C-47.67 23.01 -47.34 22.02 -47 21 C-46.34 21 -45.68 21 -45 21 C-45 20.34 -45 19.68 -45 19 C-40.64705882 15 -40.64705882 15 -37 15 C-37 14.34 -37 13.68 -37 13 C-35.35 12.67 -33.7 12.34 -32 12 C-32 11.34 -32 10.68 -32 10 C-21.59810499 4.81952867 -11.71495663 1.41425217 0 2 C0 1.34 0 0.68 0 0 Z " fill="#F16124" transform="translate(294,244)"/>
<path d="M0 0 C120.48393947 0 120.48393947 0 152.0625 30.5 C170.53900219 49.03917689 180.12800936 75.3810042 180.16796875 101.3828125 C180.17129715 102.15954315 180.17462555 102.9362738 180.17805481 103.73654175 C180.18308577 105.37188125 180.18546433 107.00723089 180.18530273 108.64257812 C180.18747596 111.09783624 180.2056362 113.55263435 180.22460938 116.0078125 C180.27253101 128.93530502 179.22803228 141.37945005 175.4375 153.8125 C175.18210449 154.65216309 174.92670898 155.49182617 174.66357422 156.35693359 C170.49731048 169.34501004 164.02003488 180.77209868 155 191 C154.55785156 191.58394531 154.11570312 192.16789063 153.66015625 192.76953125 C136.51705512 215.01908804 108.12225965 222.08166105 82 226 C54.94 226 27.88 226 0 226 C0 151.42 0 76.84 0 0 Z " fill="#FEFCF7" transform="translate(333,390)"/>
<path d="M0 0 C117.54637097 0 117.54637097 0 139.6875 20.1875 C152.42626077 33.66118928 156.17565428 49.69164798 156.25 67.5625 C156.270625 68.77486328 156.29125 69.98722656 156.3125 71.23632812 C156.38567736 88.29579984 151.29742882 103.44123081 139.234375 115.828125 C138.49703125 116.54484375 137.7596875 117.2615625 137 118 C136.07960938 118.95132813 136.07960938 118.95132813 135.140625 119.921875 C129.32862448 125.53517465 122.23378632 128.60968716 115 132 C112.99727028 132.99452182 110.99634599 133.99272512 109 135 C109.28496338 135.46970215 109.56992676 135.9394043 109.86352539 136.42333984 C116.80928837 147.89106246 123.59786757 159.44127832 130.28051758 171.06420898 C134.57736285 178.53753123 138.90137256 185.99419536 143.25 193.4375 C143.82105469 194.41638184 144.39210938 195.39526367 144.98046875 196.40380859 C147.7536775 201.15731153 150.53248241 205.90740062 153.3203125 210.65234375 C154.33866044 212.39315969 155.35689566 214.13404158 156.375 215.875 C156.84583008 216.67220459 157.31666016 217.46940918 157.80175781 218.29077148 C161 223.77338552 161 223.77338552 161 226 C146.48 226 131.96 226 117 226 C114.958125 222.184375 112.91625 218.36875 110.8125 214.4375 C105.60753445 204.74332794 100.28558766 195.12883447 94.83837891 185.56835938 C91.44786762 179.60271091 88.12842115 173.60406645 84.87719727 167.5612793 C83.7616841 165.49900636 82.63218963 163.44422757 81.48803711 161.39770508 C78.78439271 156.53421794 76.36954263 151.94242738 74.92700195 146.54931641 C73.71720364 143.7045993 73.71720364 143.7045993 69 139 C59.43 138.67 49.86 138.34 40 138 C40 167.04 40 196.08 40 226 C26.8 226 13.6 226 0 226 C0 151.42 0 76.84 0 0 Z " fill="#FEFCF7" transform="translate(547,390)"/>
<path d="M0 0 C60.0725 0 60.0725 0 80.1875 18.625 C88.27715288 27.22854477 93.4649544 37.83246958 97 49 C97.3196875 49.97195313 97.639375 50.94390625 97.96875 51.9453125 C102.62084093 69.13220401 101.66421892 89.8911625 97 107 C96.7215625 108.04542969 96.443125 109.09085938 96.15625 110.16796875 C91.24974237 126.51594461 81.94878423 140.40444907 67 149 C45.26063749 159.95926654 24.9023153 157 0 157 C0 105.19 0 53.38 0 0 Z " fill="#F16124" transform="translate(373,424)"/>
<path d="M0 0 C6.703125 -0.04125 13.40625 -0.0825 20.3125 -0.125 C22.40505127 -0.14320801 24.49760254 -0.16141602 26.65356445 -0.18017578 C41.26795294 -0.25577085 55.39659437 -0.26680667 66.8125 10.1875 C74.60508042 18.58801223 76.49919831 28.00989396 76.2734375 39.1015625 C75.61407271 48.50222045 72.00360503 55.72534161 65 62 C54.78311278 69.98585267 43.02640049 71.17574191 30.46875 71.09765625 C29.69047852 71.09664917 28.91220703 71.09564209 28.11035156 71.09460449 C25.2402191 71.08942526 22.37010786 71.07546459 19.5 71.0625 C13.065 71.041875 6.63 71.02125 0 71 C0 47.57 0 24.14 0 0 Z " fill="#F16124" transform="translate(587,424)"/>
<path d="M0 0 C55.39940631 -0.02286386 110.79881215 -0.04049694 166.19822225 -0.05106533 C172.73118789 -0.05231611 179.26415352 -0.05361043 185.79711914 -0.05493164 C187.74810181 -0.05532511 187.74810181 -0.05532511 189.73849828 -0.05572652 C210.82840019 -0.06008378 231.91829939 -0.06797163 253.00819968 -0.0771528 C274.63099162 -0.08648779 296.25378214 -0.09205528 317.87657601 -0.09408849 C331.23058745 -0.09546404 344.58459123 -0.09981635 357.93860031 -0.10791647 C367.08252034 -0.11318203 376.22643637 -0.11480473 385.3703578 -0.11350138 C390.65440724 -0.1128577 395.93844324 -0.11387885 401.22249031 -0.11920547 C406.05153677 -0.12403819 410.88056063 -0.1243395 415.70960809 -0.12089889 C417.46466183 -0.12047307 419.21971694 -0.12176988 420.97476798 -0.12488318 C423.34433902 -0.1288451 425.71382644 -0.1267647 428.08339596 -0.12304783 C428.77865921 -0.12567484 429.47392246 -0.12830186 430.1902543 -0.13100848 C434.8858542 -0.1141458 434.8858542 -0.1141458 436 1 C438.1418285 1.30086882 440.2888477 1.56502336 442.4375 1.8125 C448.82777861 2.68360614 454.19977745 4.22736614 460 7 C460.96292969 7.45826172 460.96292969 7.45826172 461.9453125 7.92578125 C463.30821592 8.59455479 464.65656596 9.29292945 466 10 C466 10.66 466 11.32 466 12 C468.475 12.495 468.475 12.495 471 13 C471 13.66 471 14.32 471 15 C471.86625 15.1546875 471.86625 15.1546875 472.75 15.3125 C475.35661158 16.10896465 476.9735311 17.19065277 479 19 C479 19.66 479 20.32 479 21 C479.99 21.33 480.98 21.66 482 22 C482 22.66 482 23.32 482 24 C482.86625 24.3403125 482.86625 24.3403125 483.75 24.6875 C486.60113897 26.3506644 488.04776661 28.35503863 490 31 C490.86625 32.051875 490.86625 32.051875 491.75 33.125 C493 35 493 35 493 38 C493.66 38 494.32 38 495 38 C497.43160605 41.36683915 498 42.73350364 498 47 C498.66 47 499.32 47 500 47 C500.62777573 48.99913047 501.25207153 50.99935382 501.875 53 C502.39707031 54.670625 502.39707031 54.670625 502.9296875 56.375 C503.28289063 57.57125 503.63609375 58.7675 504 60 C504.34697591 61.05877822 504.69395182 62.11755644 505.05144215 63.20841885 C506.73449041 70.07843658 506.271379 77.26223363 506.24723816 84.29029846 C506.24882738 85.96275923 506.25129209 87.63521935 506.25455457 89.30767769 C506.26095771 93.8937574 506.25490792 98.4797486 506.24679029 103.06582248 C506.24020501 108.01542176 506.24516357 112.96501128 506.24867249 117.91461182 C506.25371178 127.60677034 506.24807629 137.29889472 506.23882218 146.991049 C506.22843416 158.27675217 506.22850848 169.56244797 506.22899476 180.84815501 C506.22949532 200.98333125 506.22033558 221.1184916 506.20581055 241.25366211 C506.19172141 260.79468068 506.18463987 280.33568527 506.18530273 299.87670898 C506.18534269 301.08038258 506.18538265 302.28405618 506.18542381 303.52420474 C506.18546417 304.72579165 506.18550452 305.92737856 506.1855461 307.1653772 C506.1862359 329.40886603 506.18034639 351.65234893 506.17139288 373.89583584 C506.16837617 381.76391173 506.16731328 389.63198653 506.16686058 397.50006294 C506.16617852 407.08683384 506.16171484 416.67359473 506.15252777 426.26036138 C506.14791014 431.15230636 506.14486416 436.04423853 506.14612198 440.93618584 C506.14721741 445.41365096 506.14369619 449.89108774 506.13647345 454.36854696 C506.13466107 455.98887825 506.13452892 457.60921247 506.13624074 459.22954387 C506.13830977 461.43172163 506.13423365 463.63380688 506.12863445 465.8359766 C506.12793003 467.05927585 506.1272256 468.28257509 506.12649983 469.54294401 C505.90301192 475.65054277 504.77689857 481.19546467 503 487 C502.34 487 501.68 487 501 487 C500.938125 487.94875 500.87625 488.8975 500.8125 489.875 C500.10828237 495.07127249 497.47950619 499.45271375 495 504 C494.34 504 493.68 504 493 504 C492.67 505.65 492.34 507.3 492 509 C491.34 509 490.68 509 490 509 C489.690625 509.61875 489.38125 510.2375 489.0625 510.875 C488.375 512.25 487.6875 513.625 487 515 C486.34 515 485.68 515 485 515 C485 515.66 485 516.32 485 517 C481.37767572 521.04240371 477.28700293 524.17765581 472.875 527.3125 C472.25496094 527.76689453 471.63492188 528.22128906 470.99609375 528.68945312 C466.36630639 532 466.36630639 532 463 532 C463 532.66 463 533.32 463 534 C462.26394531 534.26554688 461.52789063 534.53109375 460.76953125 534.8046875 C459.79371094 535.15789063 458.81789063 535.51109375 457.8125 535.875 C456.36810547 536.39707031 456.36810547 536.39707031 454.89453125 536.9296875 C452.0743402 537.92518278 452.0743402 537.92518278 449.73828125 539.06640625 C445.69195099 540.44596821 441.61784518 540.69285819 437.375 541.0625 C435.67419935 541.21700216 433.97366145 541.37443196 432.2734375 541.53515625 C431.52497559 541.600979 430.77651367 541.66680176 430.00537109 541.73461914 C427.79735032 541.96253008 427.79735032 541.96253008 425 543 C422.7270464 543.09426169 420.45134563 543.12554669 418.17643833 543.12584114 C417.47518848 543.12729458 416.77393863 543.12874802 416.05143878 543.13024551 C413.68397506 543.13391671 411.31657527 543.13041389 408.94911194 543.12698364 C407.24170585 543.12813502 405.53430002 543.12972265 403.8268947 543.13171089 C399.12113697 543.13590197 394.4153994 543.1338145 389.70964158 543.13072467 C384.64003937 543.12846988 379.57044074 543.13195059 374.50083923 543.13470459 C364.56369876 543.13916052 354.62656583 543.13818657 344.68942506 543.13529195 C336.61553992 543.1330371 328.5416569 543.13272575 320.46777153 543.13381577 C319.32033334 543.133969 318.17289515 543.13412223 316.9906861 543.13428011 C314.65995563 543.13459982 312.32922515 543.13492403 309.99849468 543.1352527 C288.12232272 543.13810701 266.24615494 543.1348213 244.36998367 543.12945233 C225.58560225 543.12498494 206.80122701 543.12575979 188.0168457 543.13037109 C166.22255824 543.13571875 144.42827444 543.13783169 122.63398641 543.13475883 C120.31133902 543.13444027 117.98869163 543.1341259 115.66604424 543.13381577 C113.95170348 543.13358435 113.95170348 543.13358435 112.20272957 543.13334826 C104.13593099 543.13248364 96.06913473 543.13394483 88.0023365 543.13629532 C78.17527882 543.13909566 68.34822912 543.13835011 58.52117235 543.13301457 C53.50406633 543.13038065 48.48697364 543.1293673 43.46986771 543.13266373 C38.88133675 543.13563303 34.29283156 543.13402319 29.70430296 543.12868617 C28.04013354 543.12756471 26.37596196 543.12814723 24.71179391 543.13056196 C22.45763217 543.13358308 20.2035598 543.13050354 17.94940281 543.12584114 C16.69491417 543.12567879 15.44042554 543.12551644 14.1479221 543.12534916 C11.5404665 543.02152119 9.47636721 542.73864816 7 542 C5.53157695 541.83902854 4.0595017 541.70932745 2.5859375 541.60546875 C-6.59908185 540.87871093 -14.63978049 540.14612512 -23 536 C-24.99302124 535.3127513 -26.98967123 534.63484067 -29 534 C-29 533.34 -29 532.68 -29 532 C-30.0828125 531.8453125 -30.0828125 531.8453125 -31.1875 531.6875 C-34.27793421 530.93206053 -36.41743841 529.84468685 -39 528 C-39 527.34 -39 526.68 -39 526 C-40.32 525.67 -41.64 525.34 -43 525 C-43 524.34 -43 523.68 -43 523 C-43.556875 522.773125 -44.11375 522.54625 -44.6875 522.3125 C-48.68438886 520.04399551 -51.53966649 517.38100054 -53 513 C-53.99 512.67 -54.98 512.34 -56 512 C-56 511.01 -56 510.02 -56 509 C-56.66 509 -57.32 509 -58 509 C-58.33 507.35 -58.66 505.7 -59 504 C-59.66 504 -60.32 504 -61 504 C-69.8711508 487.95642941 -72.15443842 472.99135882 -72.12698364 454.94421387 C-72.12813656 453.29721527 -72.12972523 451.65021693 -72.13171089 450.00321913 C-72.13588079 445.48750389 -72.13382407 440.97180981 -72.13072467 436.4560945 C-72.12846128 431.58214281 -72.13195487 426.70819475 -72.13470459 421.83424377 C-72.13915119 412.29015134 -72.13819074 402.74606677 -72.13529195 393.20197403 C-72.13303357 385.44527187 -72.13272728 377.68857191 -72.13381577 369.93186951 C-72.133969 368.82789407 -72.13412223 367.72391864 -72.13428011 366.58648941 C-72.13459983 364.34378453 -72.13492405 362.10107965 -72.1352527 359.85837477 C-72.13810424 338.82854453 -72.13482557 317.79871865 -72.12945233 296.76888913 C-72.12498459 278.72434187 -72.12576061 260.67980105 -72.13037109 242.63525391 C-72.1357226 221.68066632 -72.13782958 200.72608256 -72.13475883 179.77149439 C-72.13444028 177.53703976 -72.13412591 175.30258513 -72.13381577 173.06813049 C-72.13366149 171.9687361 -72.13350721 170.8693417 -72.13334826 169.73663232 C-72.13248484 161.98925114 -72.13394224 154.24187238 -72.13629532 146.49449158 C-72.1390999 137.05304421 -72.13834112 127.61160516 -72.13301457 118.17015874 C-72.13038648 113.35302356 -72.12935744 108.53590224 -72.13266373 103.71876717 C-72.13564498 99.30848345 -72.13400332 94.89822644 -72.12868617 90.48794514 C-72.12756982 88.89316715 -72.12813586 87.2983869 -72.13056196 85.70361036 C-72.15779536 66.3134616 -72.15779536 66.3134616 -68 57 C-67.55416278 55.08926904 -67.10866076 53.17844539 -66.671875 51.265625 C-65.3014319 46.6443634 -63.08716175 42.33364882 -61 38 C-60.34 38 -59.68 38 -59 38 C-58.88527344 37.41734375 -58.77054688 36.8346875 -58.65234375 36.234375 C-57.95175938 33.83476865 -57.01807405 32.27139067 -55.5625 30.25 C-54.91474609 29.32960938 -54.91474609 29.32960938 -54.25390625 28.390625 C-53.84011719 27.93171875 -53.42632812 27.4728125 -53 27 C-52.34 27 -51.68 27 -51 27 C-50.67 26.01 -50.34 25.02 -50 24 C-49.34 24 -48.68 24 -48 24 C-47.67 23.01 -47.34 22.02 -47 21 C-46.34 21 -45.68 21 -45 21 C-45 20.34 -45 19.68 -45 19 C-40.64705882 15 -40.64705882 15 -37 15 C-37 14.34 -37 13.68 -37 13 C-35.35 12.67 -33.7 12.34 -32 12 C-32 11.34 -32 10.68 -32 10 C-21.59810499 4.81952867 -11.71495663 1.41425217 0 2 C0 1.34 0 0.68 0 0 Z M-52.02734375 30.14453125 C-67.27783066 48.23070961 -70.15527874 70.88481796 -70.14044189 93.69787598 C-70.14302882 95.29395096 -70.14604289 96.89002531 -70.1494453 98.48609877 C-70.1574801 102.85675809 -70.1593029 107.22740097 -70.16004276 111.59806681 C-70.16189948 116.31811872 -70.16944991 121.03816222 -70.17617798 125.75820923 C-70.18973688 136.0725372 -70.19578223 146.38686127 -70.20018864 156.70119667 C-70.20295524 163.14698493 -70.20719336 169.59277171 -70.21169281 176.03855896 C-70.22388238 193.90074825 -70.23418225 211.76293634 -70.2375679 229.6251297 C-70.23778747 230.76747022 -70.23800703 231.90981074 -70.23823325 233.08676764 C-70.23845153 234.23177175 -70.23866981 235.37677586 -70.2388947 236.55647707 C-70.23933816 238.87651857 -70.23978472 241.19656007 -70.24023438 243.51660156 C-70.2404558 244.6674113 -70.24067723 245.81822104 -70.24090537 247.00390381 C-70.24485143 265.64132741 -70.26230098 284.27871186 -70.2855939 302.91612035 C-70.30933984 322.07132912 -70.32177123 341.22651828 -70.32293582 360.381742 C-70.32385077 371.12840248 -70.32955755 381.87501195 -70.34775543 392.62165833 C-70.36320024 401.77444907 -70.36825113 410.92717304 -70.36001733 420.07997435 C-70.35612628 424.74435704 -70.35696439 429.40860542 -70.37107468 434.07297134 C-70.38390681 438.3542248 -70.38253543 442.63524432 -70.37048396 446.91649789 C-70.36854295 448.45420848 -70.3715303 449.9919362 -70.38032833 451.52962285 C-70.5131578 476.34299068 -64.73307151 499.17941718 -47.3671875 517.65625 C-35.25623826 529.64728885 -21.50047654 535.80352719 -5 539 C-4.19921823 539.16791225 -3.39843646 539.3358245 -2.57338858 539.508825 C6.38297765 541.21930939 15.1800144 541.28333578 24.2532959 541.26069641 C25.98181653 541.26372155 27.71033583 541.26761284 29.43885279 541.27228898 C34.16181262 541.28253156 38.88469622 541.2803967 43.6076622 541.27610838 C48.71218424 541.27363425 53.81668825 541.28266401 58.92120361 541.29014587 C68.91261611 541.30287721 78.90400172 541.3046884 88.89542097 541.30234561 C97.02235013 541.30056003 105.14927115 541.30231725 113.27619934 541.30657005 C115.01357642 541.30746284 115.01357642 541.30746284 116.78605202 541.30837366 C119.13937899 541.30958546 121.49270595 541.3107996 123.84603292 541.31201603 C145.90395199 541.32288619 167.96185576 541.32073195 190.01977569 541.31463119 C210.1681503 541.30946625 230.3164765 541.32070725 250.46484154 541.33972941 C271.18070992 541.35913647 291.89655543 541.36735854 312.61243296 541.36360615 C324.23160298 541.36169798 335.85073183 541.36414388 347.46989441 541.37832069 C357.36509915 541.39027229 367.26023741 541.39159742 377.15544313 541.37953053 C382.1969108 541.37366741 387.23825711 541.37247064 392.27971649 541.38453293 C396.90888593 541.39547923 401.53783397 541.3921859 406.16699344 541.37827124 C407.82781397 541.37564807 409.48865236 541.37791445 411.14945525 541.38600711 C437.48823247 541.50528051 461.75666936 536.95235848 481.24609375 517.87890625 C500.20484408 498.0596169 505.33355489 472.54028263 505.26069641 446.01092529 C505.26372322 444.43202098 505.26761533 442.85311814 505.27228898 441.27421784 C505.28250967 436.9695814 505.2804024 432.66502879 505.27610838 428.36038566 C505.27363029 423.70447644 505.28266875 419.04858685 505.29014587 414.39268494 C505.30286522 405.28407429 505.30469 396.17549316 505.30234561 387.06687513 C505.30055908 379.65886079 505.30231926 372.25085538 505.30657005 364.8428421 C505.30716524 363.78654841 505.30776043 362.73025471 505.30837366 361.64195211 C505.30958547 359.49573849 505.31079961 357.34952486 505.31201603 355.20331123 C505.32288106 335.09644746 505.32073408 314.98960047 505.31463119 294.88273576 C505.30946378 276.51392421 505.32071468 258.14516571 505.33972941 239.77636465 C505.35913144 220.88770871 505.36735961 201.99907785 505.36360615 183.11041188 C505.36169759 172.51695716 505.3641479 161.92354758 505.37832069 151.33010101 C505.39026569 142.31098399 505.39160457 133.2919399 505.37953053 124.27282181 C505.3736635 119.67727332 505.37248173 115.08185802 505.38453293 110.48631859 C505.39546538 106.26813231 505.39220202 102.05018925 505.37827124 97.83201399 C505.37564439 96.31730538 505.37792648 94.80257724 505.38600711 93.2878879 C505.50790349 68.70538172 499.66588912 44.34635404 482.19921875 26.16796875 C481.47347656 25.45253906 480.74773438 24.73710937 480 24 C479.38769531 23.37738281 478.77539062 22.75476563 478.14453125 22.11328125 C460.32114959 5.2019703 436.14122363 1.68113093 412.58811951 1.73930359 C410.84238699 1.73627855 409.09665581 1.7323873 407.35092694 1.72771102 C402.58043043 1.71746734 397.81000938 1.71960358 393.03950679 1.72389162 C387.88387874 1.72636553 382.72826854 1.7173363 377.57264709 1.70985413 C367.48130578 1.69712246 357.3899911 1.69531162 347.2986431 1.69765439 C339.0911371 1.69943983 330.88363915 1.69768305 322.67613411 1.69342995 C320.92167178 1.69253716 320.92167178 1.69253716 319.13176577 1.69162634 C316.75532507 1.69041454 314.37888438 1.68920041 312.00244368 1.68798397 C289.72804553 1.67711382 267.45366254 1.67926813 245.17926354 1.68536881 C224.82975124 1.69053452 204.48028685 1.67929072 184.13078403 1.66027059 C163.21038828 1.64086762 142.29001517 1.6326407 121.36961037 1.63639385 C109.63477728 1.63830254 97.89998495 1.63585095 86.16515923 1.62167931 C76.17220997 1.60973299 66.17932654 1.60839678 56.18637633 1.62046947 C51.09440132 1.62633608 46.00254651 1.6275195 40.91057968 1.61546707 C36.23643628 1.6045329 31.56251233 1.60780009 26.88837887 1.62172876 C25.21007961 1.62435518 23.53176272 1.62207494 21.85348087 1.61399289 C-7.34663152 1.48329347 -31.54315549 8.47628587 -52.02734375 30.14453125 Z " fill="#F9FBF9" transform="translate(294,244)"/>
<path d="M0 0 C37 0 37 0 42 1 C42 1.33 42 1.66 42 2 C28.8 2 15.6 2 2 2 C2 52.82 2 103.64 2 156 C13.55 156 25.1 156 37 156 C37 156.33 37 156.66 37 157 C24.79 157 12.58 157 0 157 C0 105.19 0 53.38 0 0 Z " fill="#F05111" transform="translate(373,424)"/>
<path d="M0 0 C10.2403125 -0.0309375 10.2403125 -0.0309375 20.6875 -0.0625 C22.83467529 -0.071604 24.98185059 -0.08070801 27.1940918 -0.09008789 C28.90413348 -0.09300969 30.61417586 -0.09555763 32.32421875 -0.09765625 C33.20549438 -0.10277222 34.08677002 -0.10788818 34.99475098 -0.11315918 C39.12966126 -0.11374561 42.96784684 -0.05075948 47 1 C47 1.33 47 1.66 47 2 C32.15 2 17.3 2 2 2 C2 24.44 2 46.88 2 70 C12.56 70 23.12 70 34 70 C34 70.33 34 70.66 34 71 C22.78 71 11.56 71 0 71 C0 47.57 0 24.14 0 0 Z " fill="#F05415" transform="translate(587,424)"/>
<path d="M0 0 C0.33 0 0.66 0 1 0 C1.92844389 4.33273814 1.92844389 7.66726186 1 12 C0.34 12 -0.32 12 -1 12 C-1.0928125 13.423125 -1.0928125 13.423125 -1.1875 14.875 C-1.89171763 20.07127249 -4.52049381 24.45271375 -7 29 C-7.66 29 -8.32 29 -9 29 C-9.33 30.65 -9.66 32.3 -10 34 C-10.66 34 -11.32 34 -12 34 C-12.309375 34.61875 -12.61875 35.2375 -12.9375 35.875 C-13.625 37.25 -14.3125 38.625 -15 40 C-15.66 40 -16.32 40 -17 40 C-17 40.66 -17 41.32 -17 42 C-20.62232428 46.04240371 -24.71299707 49.17765581 -29.125 52.3125 C-29.74503906 52.76689453 -30.36507812 53.22128906 -31.00390625 53.68945312 C-35.63369361 57 -35.63369361 57 -39 57 C-39 57.66 -39 58.32 -39 59 C-40.10408203 59.39832031 -40.10408203 59.39832031 -41.23046875 59.8046875 C-42.20628906 60.15789063 -43.18210937 60.51109375 -44.1875 60.875 C-45.15042969 61.22304688 -46.11335937 61.57109375 -47.10546875 61.9296875 C-48.9165638 62.59937717 -50.71447231 63.30732404 -52.48828125 64.0703125 C-57.73552523 66.01252722 -62.82542957 66.11485444 -68.375 66.0625 C-69.62023437 66.05347656 -70.86546875 66.04445313 -72.1484375 66.03515625 C-73.08945312 66.02355469 -74.03046875 66.01195312 -75 66 C-75 65.67 -75 65.34 -75 65 C-73.70707031 64.84144531 -72.41414062 64.68289063 -71.08203125 64.51953125 C-49.05557484 61.64097739 -30.51201905 53.7869316 -15.9375 36.5625 C-7.70152111 25.38510007 -3.02062502 13.39581529 0 0 Z " fill="#FAF4F0" transform="translate(796,719)"/>
<path d="M0 0 C4.88333508 1.55749824 9.43746178 3.6823553 14 6 C14 6.99 14 7.98 14 9 C13.175 8.72285156 12.35 8.44570312 11.5 8.16015625 C7.67481079 6.89220849 3.84171315 5.65428321 0 4.4375 C-0.68578125 4.21642578 -1.3715625 3.99535156 -2.078125 3.76757812 C-6.03526629 2.51775583 -9.87536688 1.57358179 -14 1 C-9.41504121 -2.05663919 -5.26958477 -0.96998884 0 0 Z " fill="#F8EFEA" transform="translate(744,247)"/>
<path d="M0 0 C0.33 0 0.66 0 1 0 C1.92844389 4.33273814 1.92844389 7.66726186 1 12 C0.34 12 -0.32 12 -1 12 C-1.103125 12.78375 -1.20625 13.5675 -1.3125 14.375 C-2 17 -2 17 -5 19 C-4.80664062 18.38253906 -4.61328125 17.76507812 -4.4140625 17.12890625 C-2.67003849 11.45651132 -1.21782106 5.80806965 0 0 Z " fill="#F8EBE4" transform="translate(796,719)"/>
<path d="M0 0 C2 2 2 2 2.23046875 3.91796875 C2.13989209 8.70206339 1.80325651 13.28086801 1 18 C0.34 18 -0.32 18 -1 18 C-1.11269443 11.8894576 -0.89604368 6.04829486 0 0 Z " fill="#FAF7F5" transform="translate(798,706)"/>
<path d="M0 0 C0.33 0.66 0.66 1.32 1 2 C0.34 2 -0.32 2 -1 2 C-1 2.66 -1 3.32 -1 4 C-4.02749676 7.37349639 -7.01978119 9.83930979 -11 12 C-9.60609461 8.84280428 -7.96365028 6.7187347 -5.5 4.3125 C-4.8915625 3.71050781 -4.283125 3.10851562 -3.65625 2.48828125 C-2 1 -2 1 0 0 Z " fill="#FAFEFE" transform="translate(780,757)"/>
<path d="M0 0 C-0.969375 0.4125 -1.93875 0.825 -2.9375 1.25 C-6.12260099 2.64899168 -6.12260099 2.64899168 -6.875 5.1875 C-6.91625 5.785625 -6.9575 6.38375 -7 7 C-7.99 5.35 -8.98 3.7 -10 2 C-3.375 -1.125 -3.375 -1.125 0 0 Z " fill="#F05115" transform="translate(665,522)"/>
</svg>
